<svg width="18" height="18" viewBox="0 0 18 18" fill="none" xmlns="http://www.w3.org/2000/svg">
    <path d="M16.9485 5.72248C16.9395 5.05067 16.8135 4.38554 16.5762 3.75685C16.3704 3.22655 16.056 2.74494 15.6532 2.34279C15.2504 1.94065 14.768 1.62681 14.2368 1.42133C13.6151 1.18836 12.9584 1.06239 12.2945 1.04879C11.4398 1.01064 11.1688 1 8.99911 1C6.82941 1 6.55131 1 5.7028 1.04879C5.03923 1.06249 4.38281 1.18846 3.76144 1.42133C3.23017 1.62667 2.74769 1.94045 2.34485 2.34262C1.94202 2.74478 1.62771 3.22646 1.42203 3.75685C1.18821 4.37699 1.0623 5.03247 1.04976 5.69498C1.01155 6.54917 1 6.81972 1 8.98581C1 11.1519 1 11.4287 1.04976 12.2766C1.06308 12.9401 1.18836 13.5947 1.42203 14.2165C1.62806 14.7468 1.9426 15.2283 2.34557 15.6302C2.74853 16.0322 3.23107 16.3459 3.76233 16.5512C4.38199 16.7935 5.03854 16.9285 5.70369 16.9503C6.55931 16.9885 6.8303 17 9 17C11.1697 17 11.4478 17 12.2963 16.9503C12.9602 16.9373 13.6169 16.8116 14.2386 16.5787C14.7696 16.373 15.2519 16.059 15.6547 15.6569C16.0575 15.2548 16.3719 14.7733 16.578 14.2432C16.8116 13.6222 16.9369 12.9676 16.9502 12.3033C16.9884 11.4499 17 11.1794 17 9.01242C16.9982 6.84633 16.9982 6.57135 16.9485 5.72248ZM8.99378 13.0821C6.72457 13.0821 4.88627 11.2468 4.88627 8.98137C4.88627 6.71593 6.72457 4.8807 8.99378 4.8807C10.0832 4.8807 11.1279 5.31273 11.8982 6.08176C12.6685 6.85078 13.1013 7.89381 13.1013 8.98137C13.1013 10.0689 12.6685 11.112 11.8982 11.881C11.1279 12.65 10.0832 13.082 8.99378 13.0821ZM13.2648 5.68522C13.139 5.68534 13.0144 5.66068 12.8981 5.61267C12.7818 5.56466 12.6762 5.49423 12.5872 5.40542C12.4983 5.3166 12.4277 5.21114 12.3796 5.09508C12.3316 4.97901 12.3069 4.85462 12.307 4.72902C12.307 4.6035 12.3317 4.47922 12.3798 4.36326C12.428 4.24731 12.4985 4.14194 12.5874 4.05319C12.6763 3.96444 12.7818 3.89404 12.898 3.84601C13.0141 3.79798 13.1386 3.77326 13.2643 3.77326C13.39 3.77326 13.5145 3.79798 13.6307 3.84601C13.7468 3.89404 13.8524 3.96444 13.9413 4.05319C14.0302 4.14194 14.1007 4.24731 14.1488 4.36326C14.1969 4.47922 14.2217 4.6035 14.2217 4.72902C14.2217 5.25768 13.7934 5.68522 13.2648 5.68522Z" fill="url(#paint0_radial_1055_6057)"/>
    <path d="M16.9485 5.72248C16.9395 5.05067 16.8135 4.38554 16.5762 3.75685C16.3704 3.22655 16.056 2.74494 15.6532 2.34279C15.2504 1.94065 14.768 1.62681 14.2368 1.42133C13.6151 1.18836 12.9584 1.06239 12.2945 1.04879C11.4398 1.01064 11.1688 1 8.99911 1C6.82941 1 6.55131 1 5.7028 1.04879C5.03923 1.06249 4.38281 1.18846 3.76144 1.42133C3.23017 1.62667 2.74769 1.94045 2.34485 2.34262C1.94202 2.74478 1.62771 3.22646 1.42203 3.75685C1.18821 4.37699 1.0623 5.03247 1.04976 5.69498C1.01155 6.54917 1 6.81972 1 8.98581C1 11.1519 1 11.4287 1.04976 12.2766C1.06308 12.9401 1.18836 13.5947 1.42203 14.2165C1.62806 14.7468 1.9426 15.2283 2.34557 15.6302C2.74853 16.0322 3.23107 16.3459 3.76233 16.5512C4.38199 16.7935 5.03854 16.9285 5.70369 16.9503C6.55931 16.9885 6.8303 17 9 17C11.1697 17 11.4478 17 12.2963 16.9503C12.9602 16.9373 13.6169 16.8116 14.2386 16.5787C14.7696 16.373 15.2519 16.059 15.6547 15.6569C16.0575 15.2548 16.3719 14.7733 16.578 14.2432C16.8116 13.6222 16.9369 12.9676 16.9502 12.3033C16.9884 11.4499 17 11.1794 17 9.01242C16.9982 6.84633 16.9982 6.57135 16.9485 5.72248ZM8.99378 13.0821C6.72457 13.0821 4.88627 11.2468 4.88627 8.98137C4.88627 6.71593 6.72457 4.8807 8.99378 4.8807C10.0832 4.8807 11.1279 5.31273 11.8982 6.08176C12.6685 6.85078 13.1013 7.89381 13.1013 8.98137C13.1013 10.0689 12.6685 11.112 11.8982 11.881C11.1279 12.65 10.0832 13.082 8.99378 13.0821ZM13.2648 5.68522C13.139 5.68534 13.0144 5.66068 12.8981 5.61267C12.7818 5.56466 12.6762 5.49423 12.5872 5.40542C12.4983 5.3166 12.4277 5.21114 12.3796 5.09508C12.3316 4.97901 12.3069 4.85462 12.307 4.72902C12.307 4.6035 12.3317 4.47922 12.3798 4.36326C12.428 4.24731 12.4985 4.14194 12.5874 4.05319C12.6763 3.96444 12.7818 3.89404 12.898 3.84601C13.0141 3.79798 13.1386 3.77326 13.2643 3.77326C13.39 3.77326 13.5145 3.79798 13.6307 3.84601C13.7468 3.89404 13.8524 3.96444 13.9413 4.05319C14.0302 4.14194 14.1007 4.24731 14.1488 4.36326C14.1969 4.47922 14.2217 4.6035 14.2217 4.72902C14.2217 5.25768 13.7934 5.68522 13.2648 5.68522Z" fill="url(#paint1_radial_1055_6057)"/>
    <path d="M8.99378 11.6451C10.4674 11.6451 11.6619 10.4525 11.6619 8.98137C11.6619 7.51025 10.4674 6.31766 8.99378 6.31766C7.5202 6.31766 6.32563 7.51025 6.32563 8.98137C6.32563 10.4525 7.5202 11.6451 8.99378 11.6451Z" fill="url(#paint2_radial_1055_6057)"/>
    <path d="M8.99378 11.6451C10.4674 11.6451 11.6619 10.4525 11.6619 8.98137C11.6619 7.51025 10.4674 6.31766 8.99378 6.31766C7.5202 6.31766 6.32563 7.51025 6.32563 8.98137C6.32563 10.4525 7.5202 11.6451 8.99378 11.6451Z" fill="url(#paint3_radial_1055_6057)"/>
    <defs>
        <radialGradient id="paint0_radial_1055_6057" cx="0" cy="0" r="1" gradientUnits="userSpaceOnUse" gradientTransform="translate(5.25002 18.2323) rotate(-90) scale(15.8572 14.7484)">
            <stop stop-color="#FFDD55"/>
            <stop offset="0.1" stop-color="#FFDD55"/>
            <stop offset="0.5" stop-color="#FF543E"/>
            <stop offset="1" stop-color="#C837AB"/>
        </radialGradient>
        <radialGradient id="paint1_radial_1055_6057" cx="0" cy="0" r="1" gradientUnits="userSpaceOnUse" gradientTransform="translate(-1.68008 2.15261) rotate(78.6806) scale(7.08823 29.218)">
            <stop stop-color="#3771C8"/>
            <stop offset="0.128" stop-color="#3771C8"/>
            <stop offset="1" stop-color="#6600FF" stop-opacity="0"/>
        </radialGradient>
        <radialGradient id="paint2_radial_1055_6057" cx="0" cy="0" r="1" gradientUnits="userSpaceOnUse" gradientTransform="translate(5.25002 18.2323) rotate(-90) scale(15.8572 14.7484)">
            <stop stop-color="#FFDD55"/>
            <stop offset="0.1" stop-color="#FFDD55"/>
            <stop offset="0.5" stop-color="#FF543E"/>
            <stop offset="1" stop-color="#C837AB"/>
        </radialGradient>
        <radialGradient id="paint3_radial_1055_6057" cx="0" cy="0" r="1" gradientUnits="userSpaceOnUse" gradientTransform="translate(-1.68008 2.15261) rotate(78.6806) scale(7.08823 29.218)">
            <stop stop-color="#3771C8"/>
            <stop offset="0.128" stop-color="#3771C8"/>
            <stop offset="1" stop-color="#6600FF" stop-opacity="0"/>
        </radialGradient>
    </defs>
</svg>