<svg width="14" height="14" viewBox="0 0 14 16" fill="none" xmlns="http://www.w3.org/2000/svg">
    <g clip-path="url(#clip0_3460_22302)">
        <path d="M6.53648 7.63965L0.0578613 14.6696C0.130608 14.9367 0.261343 15.183 0.440074 15.3897C0.618805 15.5964 0.840799 15.758 1.08909 15.8622C1.33737 15.9664 1.60538 16.0104 1.87261 15.9909C2.13985 15.9714 2.39925 15.8889 2.63096 15.7496L9.92062 11.4496L6.53648 7.63965Z" fill="#EA4335"/>
        <path d="M13.0877 6.4452L9.93524 4.5752L6.38696 7.8002L9.94972 11.4402L13.078 9.5902C13.3551 9.43991 13.5873 9.21392 13.7493 8.93672C13.9112 8.65953 13.9969 8.3417 13.9969 8.0177C13.9969 7.69369 13.9112 7.37586 13.7493 7.09867C13.5873 6.82147 13.3551 6.59548 13.078 6.4452H13.0877Z" fill="#FBBC04"/>
        <path d="M0.0579501 1.33008C0.0187882 1.48002 -0.000697319 1.63475 1.90553e-05 1.79008V14.2101C0.000410756 14.3653 0.0198775 14.5199 0.0579501 14.6701L6.75864 7.82008L0.0579501 1.33008Z" fill="#4285F4"/>
        <path d="M6.58476 8L9.9351 4.575L2.6551 0.255004C2.38123 0.0888738 2.06973 0.000886923 1.75234 3.57607e-06C1.36902 -0.000783178 0.99597 0.128267 0.690047 0.367483C0.384125 0.6067 0.162115 0.942959 0.0578613 1.325L6.58476 8Z" fill="#34A853"/>
    </g>
    <defs>
        <clipPath id="clip0_3460_22302">
            <rect width="14" height="16" fill="white"/>
        </clipPath>
    </defs>
</svg>