<svg width="18" height="18" viewBox="0 0 18 18" fill="none" xmlns="http://www.w3.org/2000/svg">
    <path d="M1.00321 17L2.08481 13.0256C1.37212 11.8039 0.997687 10.4144 1.00001 8.99999C1.00001 4.5816 4.58161 1 9.00001 1C13.4184 1 17 4.5816 17 8.99999C17 13.4184 13.4184 17 9.00001 17C7.58623 17.0023 6.19733 16.6281 4.97601 15.916L1.00321 17ZM6.11281 5.2464C6.0095 5.25281 5.90855 5.28002 5.81601 5.3264C5.72922 5.37554 5.65 5.43698 5.58081 5.5088C5.48481 5.5992 5.43041 5.6776 5.37201 5.7536C5.07634 6.13839 4.9173 6.61073 4.92001 7.096C4.92161 7.488 5.02401 7.8696 5.18401 8.2264C5.51121 8.94799 6.04961 9.71199 6.76081 10.42C6.93201 10.5904 7.09921 10.7616 7.27921 10.9208C8.16192 11.698 9.21381 12.2584 10.3512 12.5576L10.8064 12.6272C10.9544 12.6352 11.1024 12.624 11.2512 12.6168C11.4842 12.6048 11.7117 12.5417 11.9176 12.432C12.0224 12.378 12.1246 12.3193 12.224 12.256C12.224 12.256 12.2584 12.2336 12.324 12.184C12.432 12.104 12.4984 12.0472 12.588 11.9536C12.6544 11.8848 12.712 11.804 12.756 11.712C12.8184 11.5816 12.8808 11.3328 12.9064 11.1256C12.9256 10.9672 12.92 10.8808 12.9176 10.8272C12.9144 10.7416 12.8432 10.6528 12.7656 10.6152L12.3 10.4064C12.3 10.4064 11.604 10.1032 11.1792 9.90959C11.1344 9.89007 11.0864 9.87895 11.0376 9.87679C10.9829 9.87117 10.9276 9.87733 10.8754 9.89486C10.8232 9.91238 10.7754 9.94086 10.7352 9.97839V9.97679C10.7312 9.97679 10.6776 10.0224 10.0992 10.7232C10.066 10.7678 10.0203 10.8015 9.96785 10.82C9.91542 10.8386 9.85866 10.8411 9.8048 10.8272C9.75268 10.8133 9.70162 10.7956 9.652 10.7744C9.5528 10.7328 9.5184 10.7168 9.4504 10.6872L9.4464 10.6856C8.98873 10.4858 8.56498 10.2159 8.19041 9.88559C8.08961 9.79759 7.99601 9.70159 7.90001 9.60879C7.58527 9.30738 7.31098 8.9664 7.08401 8.5944L7.03681 8.51839C7.0029 8.46733 6.97549 8.41224 6.95521 8.3544C6.92481 8.2368 7.00401 8.1424 7.00401 8.1424C7.00401 8.1424 7.19841 7.9296 7.28881 7.8144C7.36408 7.71865 7.43431 7.61905 7.49921 7.516C7.59361 7.364 7.62321 7.208 7.57361 7.0872C7.34961 6.54 7.11761 5.9952 6.87921 5.4544C6.83201 5.3472 6.69201 5.2704 6.56481 5.2552C6.52161 5.2504 6.47841 5.2456 6.43521 5.2424C6.32777 5.23706 6.22011 5.23813 6.11281 5.2456V5.2464Z" fill="#25D366"/>
</svg>